<svg width="64" height="64" viewBox="0 0 64 64" fill="none" xmlns="http://www.w3.org/2000/svg">
<path d="M32 0C49.6731 0 64 14.3269 64 32C64 49.6731 49.6731 64 32 64C14.3269 64 0 49.6731 0 32C0 14.3269 14.3269 0 32 0ZM28.7959 2C25.04 2.00005 22.0001 5.03993 22 8.7998C21.9988 9.39566 21.8415 9.98139 21.543 10.4971C21.2444 11.0127 20.8149 11.4405 20.2988 11.7383C19.7828 12.036 19.1973 12.1931 18.6016 12.1934C18.0059 12.1936 17.4206 12.0373 16.9043 11.7402C15.3434 10.8413 13.4889 10.598 11.749 11.0645C10.0094 11.5309 8.52585 12.6686 7.62402 14.2275L4.41992 19.7842C3.52107 21.345 3.27778 23.1988 3.74414 24.9385C4.2106 26.6783 5.34895 28.1626 6.9082 29.0645C7.42375 29.3632 7.85187 29.7924 8.14941 30.3086C8.44688 30.8248 8.60349 31.4101 8.60352 32.0059C8.60352 32.6018 8.44703 33.1877 8.14941 33.7041C7.85181 34.2204 7.42382 34.6495 6.9082 34.9482C5.34896 35.8501 4.2106 37.3334 3.74414 39.0732C3.27772 40.8129 3.52113 42.6667 4.41992 44.2275L7.62793 49.7803C8.52973 51.3393 10.0133 52.4768 11.7529 52.9434C13.4928 53.4098 15.3473 53.1666 16.9082 52.2676C17.4245 51.9705 18.0098 51.8142 18.6055 51.8145C19.2012 51.8148 19.7867 51.9719 20.3027 52.2695C20.8189 52.5673 21.2483 52.996 21.5469 53.5117C21.8452 54.0273 22.0027 54.6123 22.0039 55.208C22.0039 57.0107 22.7199 58.7395 23.9941 60.0146C25.2685 61.2897 26.9971 62.0067 28.7998 62.0078H35.2041C38.9601 62.0078 42 58.964 42 55.208C42.0012 54.6123 42.1587 54.0273 42.457 53.5117C42.7556 52.996 43.185 52.5673 43.7012 52.2695C44.2172 51.9719 44.8027 51.8148 45.3984 51.8145C45.9941 51.8142 46.5794 51.9705 47.0957 52.2676C48.6566 53.1666 50.5111 53.4098 52.251 52.9434C53.9906 52.4769 55.4742 51.3393 56.376 49.7803L59.584 44.2275C60.4828 42.6667 60.7262 40.813 60.2598 39.0732C59.7933 37.3334 58.6549 35.8501 57.0957 34.9482C56.5791 34.6498 56.1508 34.2199 55.8525 33.7031C55.5543 33.1864 55.3965 32.6005 55.3965 32.0039C55.3965 31.4073 55.5543 30.8214 55.8525 30.3047C56.1508 29.7879 56.5791 29.358 57.0957 29.0596C60.3436 27.1836 61.4598 23.0322 59.584 19.7803L56.376 14.2275C55.4741 12.6686 53.9906 11.5309 52.251 11.0645C50.5111 10.598 48.6566 10.8413 47.0957 11.7402C46.5794 12.0373 45.9941 12.1936 45.3984 12.1934C44.8027 12.1931 44.2172 12.036 43.7012 11.7383C43.1851 11.4405 42.7556 11.0127 42.457 10.4971C42.1585 9.98139 42.0012 9.39566 42 8.7998C41.9999 5.03996 38.96 2.00011 35.2002 2H28.7959ZM35.2002 8C35.4123 8.00005 35.6156 8.08439 35.7656 8.23438C35.9156 8.38436 35.9999 8.5877 36 8.7998C36 16.0318 43.8317 20.5555 50.0957 16.9355C50.2785 16.8322 50.4954 16.8057 50.6982 16.8604C50.9007 16.915 51.0736 17.0467 51.1797 17.2275L54.3877 22.7803C54.4922 22.9634 54.5204 23.1801 54.4658 23.3838C54.4111 23.5876 54.278 23.762 54.0957 23.8682C47.8321 27.4842 47.8322 36.5235 54.0957 40.1436C54.2769 40.2497 54.4092 40.4233 54.4639 40.626C54.5185 40.8287 54.491 41.0447 54.3877 41.2275L51.1797 46.7803C51.0735 46.9612 50.9008 47.0938 50.6982 47.1484C50.4954 47.2031 50.2785 47.1756 50.0957 47.0723C43.8317 43.4524 36 47.9722 36 55.2002C36 55.4116 35.9167 55.6148 35.7676 55.7646C35.6184 55.9145 35.4155 55.9989 35.2041 56H28.7998C28.5877 55.9999 28.3844 55.9156 28.2344 55.7656C28.0844 55.6156 28.0001 55.4123 28 55.2002C28 47.9682 20.1683 43.4485 13.9043 47.0645C13.7211 47.1691 13.5036 47.1963 13.2998 47.1416C13.0963 47.0869 12.9226 46.9544 12.8164 46.7725L9.61621 41.2197C9.51256 41.0374 9.48426 40.8218 9.53809 40.6191C9.59196 40.4164 9.72375 40.2426 9.9043 40.1357C16.1678 36.5157 16.1678 27.4765 9.9043 23.8564C9.72428 23.7504 9.59274 23.5776 9.53809 23.376C9.48352 23.1742 9.51024 22.9588 9.6123 22.7764L12.8164 17.2197C12.9233 17.0383 13.0972 16.9064 13.3008 16.8525C13.5045 16.7986 13.7216 16.8267 13.9043 16.9316C20.1683 20.5516 28 16.0279 28 8.7959C28.0001 8.35598 28.356 8.00005 28.7959 8H35.2002ZM32 20C28.8174 20 25.7651 21.2642 23.5146 23.5146C21.2642 25.7651 20 28.8174 20 32C20 35.1826 21.2642 38.2349 23.5146 40.4854C25.7651 42.7358 28.8174 44 32 44C35.1826 44 38.2349 42.7358 40.4854 40.4854C42.7358 38.2349 44 35.1826 44 32C44 28.8174 42.7358 25.7651 40.4854 23.5146C38.2349 21.2642 35.1826 20 32 20ZM32 26C33.5913 26 35.117 26.6326 36.2422 27.7578C37.3674 28.883 38 30.4087 38 32C38 33.5913 37.3674 35.117 36.2422 36.2422C35.117 37.3674 33.5913 38 32 38C30.4087 38 28.883 37.3674 27.7578 36.2422C26.6326 35.117 26 33.5913 26 32C26 30.4087 26.6326 28.883 27.7578 27.7578C28.883 26.6326 30.4087 26 32 26Z" fill="#F8F8FF"/>
</svg>
