<svg width="64" height="64" viewBox="0 0 64 64" fill="none" xmlns="http://www.w3.org/2000/svg">
<path d="M32 0C49.6731 0 64 14.3269 64 32C64 49.6731 49.6731 64 32 64C14.3269 64 0 49.6731 0 32C0 14.3269 14.3269 0 32 0ZM40.5537 5.5C31.1344 5.5 23.4668 13.0854 23.4648 22.4795C23.4626 24.2593 23.7429 26.0245 24.291 27.71L10.8486 41.0586C10.1048 41.7952 9.51352 42.6722 9.11035 43.6387C8.7073 44.6052 8.5 45.6425 8.5 46.6895L8.50977 47.082C8.55507 47.9948 8.75771 48.8947 9.11035 49.7402V49.7412C9.51346 50.7072 10.1049 51.5838 10.8486 52.3203C10.8575 52.3291 10.8669 52.3381 10.876 52.3467L11.1094 52.5664C11.118 52.5745 11.1269 52.5829 11.1357 52.5908C12.6032 53.9076 14.51 54.6416 16.4912 54.6416L16.8867 54.6318C18.8555 54.5345 20.7256 53.7139 22.1328 52.3203L22.1348 52.3184L35.7646 38.7852C37.2858 39.2262 38.8929 39.4668 40.5537 39.4668L40.9941 39.4609C50.0641 39.2323 57.4044 31.9702 57.6357 22.9229L57.6416 22.4834C57.6416 20.5867 57.3258 18.7584 56.7471 17.0518L56.6279 16.7119L56.5684 16.5645C56.2514 15.8385 55.6069 15.3005 54.8262 15.125H54.8252C54.0972 14.9619 53.339 15.1333 52.7549 15.582L52.6738 15.6494L52.5791 15.7334L52.5176 15.791L49.2061 19.0771C48.7114 19.5667 48.0642 19.8687 47.377 19.9365L47.0801 19.9512C46.3336 19.9512 45.6149 19.6749 45.0625 19.1797L44.9512 19.0742C44.6778 18.803 44.46 18.4795 44.3115 18.124C44.2003 17.8573 44.13 17.575 44.1016 17.2871L44.0869 16.998C44.0869 16.6107 44.1639 16.2272 44.3125 15.8711C44.4613 15.5148 44.6793 15.1908 44.9541 14.9189L44.957 14.916L48.6787 11.2217C49.2539 10.6507 49.5174 9.83551 49.3838 9.03516V9.03418L49.3535 8.88574C49.1837 8.14965 48.689 7.52675 48.0049 7.19629L48.0039 7.19531L47.5781 6.99707C45.5756 6.09903 43.3686 5.57306 41.0518 5.50684L40.5537 5.5ZM41.0908 10.5117C41.4642 10.5279 41.8328 10.5623 42.1963 10.6113L41.4385 11.3643C40.694 12.1008 40.102 12.978 39.6982 13.9453H39.6973C39.2936 14.9127 39.0869 15.9509 39.0869 16.998C39.087 18.0449 39.2944 19.0832 39.6982 20.0508C40.102 21.0178 40.694 21.8953 41.4385 22.6318C42.9402 24.1175 44.9676 24.9511 47.0801 24.9512L47.4756 24.9414C49.4061 24.8461 51.2404 24.0546 52.6387 22.71C52.5184 29.1054 47.3363 34.3001 40.8662 34.4629L40.5537 34.4668C39.1498 34.4668 37.8064 34.2303 36.5596 33.7979L36.0312 33.6006L35.8779 33.5449C35.1066 33.2929 34.2661 33.4339 33.6211 33.9082L33.5371 33.9746L33.4248 34.0703L33.3408 34.1475L18.6143 48.7686C18.1201 49.2578 17.4737 49.5592 16.7871 49.627L16.4912 49.6416C15.6959 49.6416 14.9321 49.3269 14.3672 48.7676H14.3662C14.0924 48.4963 13.8744 48.172 13.7256 47.8154C13.6142 47.5483 13.5432 47.266 13.5146 46.9785L13.5 46.6895C13.5 46.303 13.5769 45.9201 13.7256 45.5635C13.8745 45.2067 14.0928 44.882 14.3672 44.6104L14.3691 44.6084L28.9678 30.1143L29.0996 29.9727C29.7284 29.2439 29.8854 28.2117 29.4902 27.3232V27.3223L29.3672 27.0352C28.7701 25.5941 28.4629 24.0482 28.4648 22.4863V22.4834C28.4648 15.8831 33.8605 10.5 40.5537 10.5L41.0908 10.5117Z" fill="#F8F8FF"/>
</svg>
