<svg width="64" height="64" viewBox="0 0 64 64" fill="none" xmlns="http://www.w3.org/2000/svg">
<path d="M32 0C49.6731 0 64 14.3269 64 32C64 49.6731 49.6731 64 32 64C14.3269 64 0 49.6731 0 32C0 14.3269 14.3269 0 32 0ZM32 1C14.8792 1 1 14.8792 1 32C1 49.1208 14.8792 63 32 63C49.1208 63 63 49.1208 63 32C63 14.8792 49.1208 1 32 1ZM48.667 42.416H21.583C20.4326 42.4162 19.5 43.3495 19.5 44.5V46.583C19.5 47.7335 20.4326 48.6659 21.583 48.666H46.583V44.5H48.667V52.833H21.583C18.1314 52.8328 15.333 50.0347 15.333 46.583V17.416C15.3332 13.9645 18.1315 11.1662 21.583 11.166H48.667V42.416ZM44.5 44.5V46.583H21.583V44.5H44.5ZM32 34.083H36.167V25.75H32V34.083ZM34.083 19.5C32.9326 19.5002 32.0001 20.4326 32 21.583C32 22.7335 32.9326 23.6659 34.083 23.666C35.2336 23.666 36.167 22.7336 36.167 21.583C36.1669 20.4325 35.2336 19.5 34.083 19.5Z" fill="#F8F8FF"/>
</svg>
