<?xml version="1.0" encoding="utf-8"?>
<!-- Generator: Adobe Illustrator 21.1.0, SVG Export Plug-In . SVG Version: 6.00 Build 0)  -->
<svg version="1.1" id="Слой_1" xmlns="http://www.w3.org/2000/svg" xmlns:xlink="http://www.w3.org/1999/xlink" x="0px" y="0px"
	 viewBox="0 0 340.2 113.4" style="enable-background:new 0 0 340.2 113.4;" xml:space="preserve">
<style type="text/css">
	.st0{fill:#FFFFFF;}
</style>
<g>
	<path class="st0" d="M63.5,56.7c2.5,0,5.1,0,5.1,0c3.9,0,7-3.7,7-7c0-3.4-2.8-7.4-7-7.4h-13l-3.8-7.1h18.1c7.6,0,15,6.6,15,14.5
		c0,5.3-4.3,10.5-9.4,11.8l-0.6,0.1c0,0,0.1,0.2,0.3,0.4c0.6,1.2,7.4,12.3,13.4,22.1c2.1-1.2,3.6-3.5,3.6-6.1V45.4
		c0-9.4-7.7-17-17-17H41.4c5.2,9.5,14.3,26,15.5,28.4h-5.1c-3.9,0-7,3.7-7,7c0,3.4,2.8,7.4,7,7.4h13l3.9,7.1H50.5
		c-7.6,0-15-6.6-15-14.4c0-5.3,4.3-10.5,9.4-11.8l0.6-0.1c0,0-0.1-0.2-0.3-0.4c-0.5-1-6.8-11.1-13.5-22.1c-2,1.2-3.4,3.5-3.4,6.1V68
		c0,9.4,7.6,17,17,17H79C72.8,73.7,64.6,58.7,63.5,56.7"/>
	<path class="st0" d="M106.3,78V35.4h17.2c3.4,0,6.4,0.4,8.8,1.2c2.4,0.8,4.2,1.9,5.5,3.3c1.2,1.4,2.1,2.9,2.6,4.4
		c0.5,1.5,0.8,3.2,0.8,5.1c0,1.8-0.3,3.5-0.9,5.1c-0.6,1.6-1.6,3.1-2.9,4.4c-1.3,1.4-3.2,2.4-5.5,3.2c-2.4,0.8-5.2,1.2-8.4,1.2h-9.8
		V78H106.3z M113.6,42.3v14.2h9.7c6.8,0,10.2-2.4,10.2-7.2c0-4.7-3.3-7-9.8-7H113.6z"/>
	<polygon class="st0" points="145.8,78 145.8,35.4 153.1,35.4 153.1,64.9 176.4,35.4 182.6,35.4 182.6,78 175.3,78 175.3,48.5 
		151.9,78 	"/>
	<polygon class="st0" points="304.5,59.9 282.2,59.9 282.2,78 274.8,78 274.8,35.4 282.2,35.4 282.2,53 304.5,53 304.5,35.4 
		311.8,35.4 311.8,78 304.5,78 	"/>
	<path class="st0" d="M248.7,35.4h5.6L272.9,78h-7.7l-4.1-9.4h-19.4l-4.1,9.4h-7.6L248.7,35.4z M244.4,62.2h14l-7-16.2L244.4,62.2z"
		/>
	<path class="st0" d="M230.1,71.2l-15.7-35.8h-5.6l-15.6,35.7H188l-3,6.9h5.2l0,0h7.6l0,0h27.6l0,0h1.8L230.1,71.2z M200.8,71.1
		l1.1-2.6l0.1-0.3l9.5-22.2l10.9,25H200.8z"/>
</g>
</svg>
