<?xml version="1.0" encoding="utf-8"?>
<!-- Generator: Adobe Illustrator 21.1.0, SVG Export Plug-In . SVG Version: 6.00 Build 0)  -->
<svg version="1.1" id="Layer_1" xmlns="http://www.w3.org/2000/svg" xmlns:xlink="http://www.w3.org/1999/xlink" x="0px" y="0px"
	 viewBox="0 0 396.9 269.3" style="enable-background:new 0 0 396.9 269.3;" xml:space="preserve">
<style type="text/css">
	.st0{fill:none;}
	.st1{fill:#CC0000;}
</style>
<rect class="st0" width="396.9" height="269.3"/>
<path class="st1" d="M205.2,85h10.2c7.8,0,14.2-6.3,14.2-14.2c0-7.8-6.3-14.2-14.2-14.2h-25.9l-7.9-14.2h38
	c15.7,0,28.3,12.7,28.3,28.3c0,11.9-8.7,21.8-20,23.7l27.2,45.2c4.2-2.5,7.1-7,7.1-12.2V70.9c0-23.5-19-42.5-42.5-42.5h-59.5
	L191.6,85h-10.2c-7.8,0-14.2,6.3-14.2,14.2c0,7.8,6.3,14.2,14.2,14.2h25.9l7.9,14.2h-38c-15.7,0-28.3-12.7-28.3-28.3
	c0-11.9,8.7-21.8,20-23.7l-27.2-45.2c-4.2,2.5-7.1,7-7.1,12.2v56.7c0,23.5,19,42.5,42.5,42.5h59.5L205.2,85z"/>
<g>
	<path class="st1" d="M28.3,240.9v-70.9H57c5.7,0,10.6,0.7,14.6,2c4,1.3,7.1,3.2,9.1,5.5c2.1,2.4,3.5,4.8,4.4,7.3
		c0.9,2.5,1.3,5.3,1.3,8.5c0,3-0.5,5.9-1.6,8.6c-1,2.7-2.7,5.1-4.9,7.4c-2.2,2.3-5.3,4-9.2,5.4c-3.9,1.3-8.6,2-13.9,2H40.6v24.3
		H28.3z M40.6,181.5v23.7h16.1c11.3,0,17-4,17-11.9c0-7.8-5.4-11.7-16.3-11.7H40.6z"/>
	<path class="st1" d="M92.9,240.9v-70.9h12.2v49.1l38.9-49.1h10.3v70.9h-12.2v-49.1l-39,49.1H92.9z"/>
	<path class="st1" d="M356.3,210.9h-36v30.1H308v-70.9h12.2v29.3h36v-29.3h12.2v70.9h-12.2V210.9z"/>
	<path class="st1" d="M264.3,170.1h9.3l31.1,70.9h-12.9l-6.9-15.7h-32.3l-6.8,15.7h-12.7L264.3,170.1z M257.1,214.7h23.3l-11.6-26.9
		L257.1,214.7z"/>
</g>
<path class="st1" d="M233.3,229.1l-25.9-59.1h-9.3l-25.9,59.1h-8.7l-5.2,11.8h69.8L233.3,229.1L233.3,229.1z M184.7,229.1l17.8-41.3
	l18,41.3H184.7z"/>
</svg>
