<svg width="64" height="64" viewBox="0 0 64 64" fill="none" xmlns="http://www.w3.org/2000/svg">
<path d="M32 0C49.6731 0 64 14.3269 64 32C64 49.6731 49.6731 64 32 64C14.3269 64 0 49.6731 0 32C0 14.3269 14.3269 0 32 0ZM32 1C14.8792 1 1 14.8792 1 32C1 49.1208 14.8792 63 32 63C49.1208 63 63 49.1208 63 32C63 14.8792 49.1208 1 32 1ZM37.333 5.33301C37.6517 5.33215 37.961 5.44441 38.2051 5.64941C38.449 5.85438 38.6128 6.13914 38.667 6.45312L39.6533 13.5195C41.3333 14.1862 42.7735 15.0938 44.1602 16.1338L50.7998 13.4668C51.3865 13.2268 52.1068 13.467 52.4268 14.0537L57.7598 23.2803C58.0796 23.8668 57.9467 24.5863 57.4404 24.9863L51.8135 29.333C51.9201 30.2397 52 31.12 52 32C52 32.88 51.9201 33.7336 51.8135 34.5869L57.4404 39.0137C57.9467 39.4137 58.0796 40.1332 57.7598 40.7197L52.4268 49.9463C52.1068 50.533 51.3865 50.7465 50.7998 50.5332L44.1602 47.8398C42.7735 48.9065 41.3333 49.7871 39.6533 50.4805L38.667 57.5469C38.5603 58.1868 37.9996 58.667 37.333 58.667H26.667C26.0004 58.667 25.4397 58.1868 25.333 57.5469L24.3467 50.4805C22.6667 49.8138 21.2265 48.9065 19.8398 47.8398L13.2002 50.5332C12.6135 50.7465 11.8932 50.533 11.5732 49.9463L6.24023 40.7197C5.89374 40.1332 6.05327 39.4137 6.55957 39.0137L12.1865 34.5869C12.0799 33.7336 12 32.88 12 32C12 31.12 12.0799 30.2397 12.1865 29.333L6.55957 24.9863C6.05327 24.5863 5.89374 23.8668 6.24023 23.2803L11.5732 14.0537C11.8932 13.467 12.6135 13.2268 13.2002 13.4668L19.8398 16.1338C21.2265 15.0938 22.6667 14.1862 24.3467 13.5195L25.333 6.45312C25.4397 5.8132 26.0004 5.33301 26.667 5.33301H37.333ZM32 22.667C29.5246 22.667 27.1507 23.6501 25.4004 25.4004C23.6501 27.1507 22.667 29.5246 22.667 32C22.667 34.4754 23.6501 36.8493 25.4004 38.5996C27.1507 40.3499 29.5246 41.333 32 41.333C34.4754 41.333 36.8493 40.3499 38.5996 38.5996C40.3499 36.8493 41.333 34.4754 41.333 32C41.333 29.5246 40.3499 27.1507 38.5996 25.4004C36.8493 23.6501 34.4754 22.667 32 22.667Z" fill="#F8F8FF"/>
</svg>
