<svg width="64" height="64" viewBox="0 0 64 64" fill="none" xmlns="http://www.w3.org/2000/svg">
<path d="M32 0C49.6731 0 64 14.3269 64 32C64 49.6731 49.6731 64 32 64C14.3269 64 0 49.6731 0 32C0 14.3269 14.3269 0 32 0ZM32 1C14.8792 1 1 14.8792 1 32C1 49.1208 14.8792 63 32 63C49.1208 63 63 49.1208 63 32C63 14.8792 49.1208 1 32 1ZM16.792 10.542C21.7919 8.25044 28.0414 9.08351 32.208 13.25C36.1663 17.2083 37.208 22.8333 35.333 27.625L54.292 46.583C55.1253 47.208 55.1247 48.6667 54.083 49.5L49.292 54.292C48.4587 55.1253 47.2083 55.1252 46.375 54.292L27.417 35.333C22.6253 37.208 17.0003 36.1663 13.042 32.208C8.87544 28.0414 7.83326 21.7919 10.333 16.792L19.5 25.75L25.75 19.5L16.792 10.542Z" fill="#F8F8FF"/>
</svg>
