<svg width="64" height="64" viewBox="0 0 64 64" fill="none" xmlns="http://www.w3.org/2000/svg">
<path d="M32 0C49.6731 0 64 14.3269 64 32C64 49.6731 49.6731 64 32 64C14.3269 64 0 49.6731 0 32C0 14.3269 14.3269 0 32 0ZM17.5 7C13.3579 7 10 10.3579 10 14.5V49.5C10.0001 53.642 13.358 57 17.5 57H50V47H47.5V52H17.5C16.1194 52 15.0001 50.8806 15 49.5V47C15 45.6193 16.1193 44.5 17.5 44.5H50V7H17.5ZM17.5 47V49.5H45V47H17.5ZM45 12V39.5H17.5C16.6485 39.4991 15.803 39.6434 15 39.9268V14.5C15 13.1193 16.1193 12 17.5 12H45ZM27.5 24.5V34.5H32.5V24.5H27.5ZM30 17C28.6193 17 27.5 18.1193 27.5 19.5C27.5001 20.8806 28.6194 22 30 22C31.3806 22 32.4999 20.8806 32.5 19.5C32.5 18.1193 31.3807 17 30 17Z" fill="#F8F8FF"/>
</svg>
